<svg xmlns="http://www.w3.org/2000/svg" width="1270" height="480" viewBox="0 0 1270 480">
 <defs>
  <linearGradient id="gm" gradientUnits="userSpaceOnUse" x1="144" y1="48" x2="400" y2="432">
   <stop offset="0" stop-color="#78995f"/><stop offset="1" stop-color="#5395cc"/>
  </linearGradient>
  <linearGradient id="gd" gradientUnits="userSpaceOnUse" x1="144" y1="48" x2="400" y2="432">
   <stop offset="0" stop-color="#495d3a"/><stop offset="1" stop-color="#335b7c"/>
  </linearGradient>
 </defs>
  <rect x="48" y="48" width="29" height="61" fill="#495d3a"/>
  <rect x="80" y="48" width="29" height="61" fill="#78995f"/>
  <rect x="112" y="48" width="29" height="61" fill="#78995f"/>
  <rect x="48" y="176" width="29" height="61" fill="#495d3a"/>
  <rect x="80" y="176" width="29" height="61" fill="#78995f"/>
  <rect x="112" y="176" width="29" height="61" fill="#78995f"/>
  <rect x="48" y="240" width="29" height="61" fill="#495d3a"/>
  <rect x="80" y="240" width="29" height="61" fill="#78995f"/>
  <rect x="112" y="240" width="29" height="61" fill="#78995f"/>
  <rect x="48" y="304" width="29" height="61" fill="#495d3a"/>
  <rect x="80" y="304" width="29" height="61" fill="#78995f"/>
  <rect x="112" y="304" width="29" height="61" fill="#78995f"/>
  <rect x="48" y="368" width="29" height="61" fill="#495d3a"/>
  <rect x="80" y="368" width="29" height="61" fill="#78995f"/>
  <rect x="112" y="368" width="29" height="61" fill="#78995f"/>
  <rect x="144" y="48" width="29" height="61" fill="url(#gd)"/>
  <rect x="176" y="48" width="29" height="61" fill="url(#gm)"/>
  <rect x="208" y="48" width="29" height="61" fill="url(#gm)"/>
  <rect x="176" y="112" width="29" height="61" fill="url(#gd)"/>
  <rect x="208" y="112" width="29" height="61" fill="url(#gm)"/>
  <rect x="240" y="112" width="29" height="61" fill="url(#gm)"/>
  <rect x="208" y="176" width="29" height="61" fill="url(#gd)"/>
  <rect x="240" y="176" width="29" height="61" fill="url(#gm)"/>
  <rect x="272" y="176" width="29" height="61" fill="url(#gm)"/>
  <rect x="240" y="240" width="29" height="61" fill="url(#gd)"/>
  <rect x="272" y="240" width="29" height="61" fill="url(#gm)"/>
  <rect x="304" y="240" width="29" height="61" fill="url(#gm)"/>
  <rect x="272" y="304" width="29" height="61" fill="url(#gd)"/>
  <rect x="304" y="304" width="29" height="61" fill="url(#gm)"/>
  <rect x="336" y="304" width="29" height="61" fill="url(#gm)"/>
  <rect x="304" y="368" width="29" height="61" fill="url(#gd)"/>
  <rect x="336" y="368" width="29" height="61" fill="url(#gm)"/>
  <rect x="368" y="368" width="29" height="61" fill="url(#gm)"/>
  <rect x="400" y="48" width="29" height="61" fill="#335b7c"/>
  <rect x="432" y="48" width="29" height="61" fill="#5395cc"/>
  <rect x="464" y="48" width="29" height="61" fill="#5395cc"/>
  <rect x="496" y="48" width="29" height="61" fill="#5395cc"/>
  <rect x="528" y="48" width="29" height="61" fill="#5395cc"/>
  <rect x="560" y="48" width="29" height="61" fill="#5395cc"/>
  <rect x="592" y="48" width="29" height="61" fill="#5395cc"/>
  <rect x="624" y="48" width="29" height="61" fill="#5395cc"/>
  <rect x="400" y="112" width="29" height="61" fill="#335b7c"/>
  <rect x="432" y="112" width="29" height="61" fill="#5395cc"/>
  <rect x="464" y="112" width="29" height="61" fill="#5395cc"/>
  <rect x="400" y="176" width="29" height="61" fill="#335b7c"/>
  <rect x="432" y="176" width="29" height="61" fill="#5395cc"/>
  <rect x="464" y="176" width="29" height="61" fill="#5395cc"/>
  <rect x="496" y="176" width="29" height="61" fill="#5395cc"/>
  <rect x="528" y="176" width="29" height="61" fill="#5395cc"/>
  <rect x="560" y="176" width="29" height="61" fill="#5395cc"/>
  <rect x="592" y="176" width="29" height="61" fill="#5395cc"/>
  <rect x="624" y="176" width="29" height="61" fill="#5395cc"/>
  <rect x="400" y="240" width="29" height="61" fill="#335b7c"/>
  <rect x="432" y="240" width="29" height="61" fill="#5395cc"/>
  <rect x="464" y="240" width="29" height="61" fill="#5395cc"/>
  <rect x="400" y="304" width="29" height="61" fill="#335b7c"/>
  <rect x="432" y="304" width="29" height="61" fill="#5395cc"/>
  <rect x="464" y="304" width="29" height="61" fill="#5395cc"/>
  <rect x="400" y="368" width="29" height="61" fill="#335b7c"/>
  <rect x="432" y="368" width="29" height="61" fill="#5395cc"/>
  <rect x="464" y="368" width="29" height="61" fill="#5395cc"/>
  <rect x="704" y="277.8" width="17.4" height="36.6" fill="#5395cc"/>
  <rect x="723.2" y="277.8" width="17.4" height="36.6" fill="#5395cc"/>
  <rect x="742.4" y="277.8" width="17.4" height="36.6" fill="#5395cc"/>
  <rect x="761.6" y="277.8" width="17.4" height="36.6" fill="#5395cc"/>
  <rect x="780.8" y="277.8" width="17.4" height="36.6" fill="#5395cc"/>
  <rect x="800" y="277.8" width="17.4" height="36.6" fill="#5395cc"/>
  <rect x="704" y="316.2" width="17.4" height="36.6" fill="#5395cc"/>
  <rect x="723.2" y="316.2" width="17.4" height="36.6" fill="#5395cc"/>
  <rect x="780.8" y="316.2" width="17.4" height="36.6" fill="#5395cc"/>
  <rect x="800" y="316.2" width="17.4" height="36.6" fill="#5395cc"/>
  <rect x="704" y="354.6" width="17.4" height="36.6" fill="#5395cc"/>
  <rect x="723.2" y="354.6" width="17.4" height="36.6" fill="#5395cc"/>
  <rect x="780.8" y="354.6" width="17.4" height="36.6" fill="#5395cc"/>
  <rect x="800" y="354.6" width="17.4" height="36.6" fill="#5395cc"/>
  <rect x="704" y="393" width="17.4" height="36.6" fill="#5395cc"/>
  <rect x="723.2" y="393" width="17.4" height="36.6" fill="#5395cc"/>
  <rect x="780.8" y="393" width="17.4" height="36.6" fill="#5395cc"/>
  <rect x="800" y="393" width="17.4" height="36.6" fill="#5395cc"/>
  <rect x="838.4" y="277.8" width="17.4" height="36.6" fill="#5395cc"/>
  <rect x="857.6" y="277.8" width="17.4" height="36.6" fill="#5395cc"/>
  <rect x="915.2" y="277.8" width="17.4" height="36.6" fill="#5395cc"/>
  <rect x="934.4" y="277.8" width="17.4" height="36.6" fill="#5395cc"/>
  <rect x="838.4" y="316.2" width="17.4" height="36.6" fill="#5395cc"/>
  <rect x="857.6" y="316.2" width="17.4" height="36.6" fill="#5395cc"/>
  <rect x="915.2" y="316.2" width="17.4" height="36.6" fill="#5395cc"/>
  <rect x="934.4" y="316.2" width="17.4" height="36.6" fill="#5395cc"/>
  <rect x="857.6" y="354.6" width="17.4" height="36.6" fill="#5395cc"/>
  <rect x="876.8" y="354.6" width="17.4" height="36.6" fill="#5395cc"/>
  <rect x="896" y="354.6" width="17.4" height="36.6" fill="#5395cc"/>
  <rect x="915.2" y="354.6" width="17.4" height="36.6" fill="#5395cc"/>
  <rect x="876.8" y="393" width="17.4" height="36.6" fill="#5395cc"/>
  <rect x="896" y="393" width="17.4" height="36.6" fill="#5395cc"/>
  <rect x="972.8" y="201" width="17.4" height="36.6" fill="#5395cc"/>
  <rect x="992" y="201" width="17.4" height="36.6" fill="#5395cc"/>
  <rect x="972.8" y="277.8" width="17.4" height="36.6" fill="#5395cc"/>
  <rect x="992" y="277.8" width="17.4" height="36.6" fill="#5395cc"/>
  <rect x="972.8" y="316.2" width="17.4" height="36.6" fill="#5395cc"/>
  <rect x="992" y="316.2" width="17.4" height="36.6" fill="#5395cc"/>
  <rect x="972.8" y="354.6" width="17.4" height="36.6" fill="#5395cc"/>
  <rect x="992" y="354.6" width="17.4" height="36.6" fill="#5395cc"/>
  <rect x="972.8" y="393" width="17.4" height="36.6" fill="#5395cc"/>
  <rect x="992" y="393" width="17.4" height="36.6" fill="#5395cc"/>
  <rect x="1030.4" y="277.8" width="17.4" height="36.6" fill="#5395cc"/>
  <rect x="1049.6" y="277.8" width="17.4" height="36.6" fill="#5395cc"/>
  <rect x="1068.8" y="277.8" width="17.4" height="36.6" fill="#5395cc"/>
  <rect x="1088" y="277.8" width="17.4" height="36.6" fill="#5395cc"/>
  <rect x="1107.2" y="277.8" width="17.4" height="36.6" fill="#5395cc"/>
  <rect x="1126.4" y="277.8" width="17.4" height="36.6" fill="#5395cc"/>
  <rect x="1145.6" y="277.8" width="17.4" height="36.6" fill="#5395cc"/>
  <rect x="1164.8" y="277.8" width="17.4" height="36.6" fill="#5395cc"/>
  <rect x="1184" y="277.8" width="17.4" height="36.6" fill="#5395cc"/>
  <rect x="1203.2" y="277.8" width="17.4" height="36.6" fill="#5395cc"/>
  <rect x="1030.4" y="316.2" width="17.4" height="36.6" fill="#5395cc"/>
  <rect x="1049.6" y="316.2" width="17.4" height="36.6" fill="#5395cc"/>
  <rect x="1107.2" y="316.2" width="17.4" height="36.6" fill="#5395cc"/>
  <rect x="1126.4" y="316.2" width="17.4" height="36.6" fill="#5395cc"/>
  <rect x="1184" y="316.2" width="17.4" height="36.6" fill="#5395cc"/>
  <rect x="1203.2" y="316.2" width="17.4" height="36.6" fill="#5395cc"/>
  <rect x="1030.4" y="354.6" width="17.4" height="36.6" fill="#5395cc"/>
  <rect x="1049.6" y="354.6" width="17.4" height="36.6" fill="#5395cc"/>
  <rect x="1107.2" y="354.6" width="17.4" height="36.6" fill="#5395cc"/>
  <rect x="1126.4" y="354.6" width="17.4" height="36.6" fill="#5395cc"/>
  <rect x="1184" y="354.6" width="17.4" height="36.6" fill="#5395cc"/>
  <rect x="1203.2" y="354.6" width="17.4" height="36.6" fill="#5395cc"/>
  <rect x="1030.4" y="393" width="17.4" height="36.6" fill="#5395cc"/>
  <rect x="1049.6" y="393" width="17.4" height="36.6" fill="#5395cc"/>
  <rect x="1107.2" y="393" width="17.4" height="36.6" fill="#5395cc"/>
  <rect x="1126.4" y="393" width="17.4" height="36.6" fill="#5395cc"/>
  <rect x="1184" y="393" width="17.4" height="36.6" fill="#5395cc"/>
  <rect x="1203.2" y="393" width="17.4" height="36.6" fill="#5395cc"/>
  <rect x="661.76" y="412.8" width="19.2" height="19.2" fill="#5395cc"/>
</svg>
