<svg xmlns="http://www.w3.org/2000/svg" width="704" height="480" viewBox="0 0 704 480">
 <defs>
  <linearGradient id="gm" gradientUnits="userSpaceOnUse" x1="144" y1="48" x2="400" y2="432">
   <stop offset="0" stop-color="#98c379"/><stop offset="1" stop-color="#61afef"/>
  </linearGradient>
  <linearGradient id="gd" gradientUnits="userSpaceOnUse" x1="144" y1="48" x2="400" y2="432">
   <stop offset="0" stop-color="#5d774a"/><stop offset="1" stop-color="#3b6b92"/>
  </linearGradient>
 </defs>
  <rect x="48" y="48" width="29" height="61" fill="#5d774a"/>
  <rect x="80" y="48" width="29" height="61" fill="#98c379"/>
  <rect x="112" y="48" width="29" height="61" fill="#98c379"/>
  <rect x="48" y="176" width="29" height="61" fill="#5d774a"/>
  <rect x="80" y="176" width="29" height="61" fill="#98c379"/>
  <rect x="112" y="176" width="29" height="61" fill="#98c379"/>
  <rect x="48" y="240" width="29" height="61" fill="#5d774a"/>
  <rect x="80" y="240" width="29" height="61" fill="#98c379"/>
  <rect x="112" y="240" width="29" height="61" fill="#98c379"/>
  <rect x="48" y="304" width="29" height="61" fill="#5d774a"/>
  <rect x="80" y="304" width="29" height="61" fill="#98c379"/>
  <rect x="112" y="304" width="29" height="61" fill="#98c379"/>
  <rect x="48" y="368" width="29" height="61" fill="#5d774a"/>
  <rect x="80" y="368" width="29" height="61" fill="#98c379"/>
  <rect x="112" y="368" width="29" height="61" fill="#98c379"/>
  <rect x="144" y="48" width="29" height="61" fill="url(#gd)"/>
  <rect x="176" y="48" width="29" height="61" fill="url(#gm)"/>
  <rect x="208" y="48" width="29" height="61" fill="url(#gm)"/>
  <rect x="176" y="112" width="29" height="61" fill="url(#gd)"/>
  <rect x="208" y="112" width="29" height="61" fill="url(#gm)"/>
  <rect x="240" y="112" width="29" height="61" fill="url(#gm)"/>
  <rect x="208" y="176" width="29" height="61" fill="url(#gd)"/>
  <rect x="240" y="176" width="29" height="61" fill="url(#gm)"/>
  <rect x="272" y="176" width="29" height="61" fill="url(#gm)"/>
  <rect x="240" y="240" width="29" height="61" fill="url(#gd)"/>
  <rect x="272" y="240" width="29" height="61" fill="url(#gm)"/>
  <rect x="304" y="240" width="29" height="61" fill="url(#gm)"/>
  <rect x="272" y="304" width="29" height="61" fill="url(#gd)"/>
  <rect x="304" y="304" width="29" height="61" fill="url(#gm)"/>
  <rect x="336" y="304" width="29" height="61" fill="url(#gm)"/>
  <rect x="304" y="368" width="29" height="61" fill="url(#gd)"/>
  <rect x="336" y="368" width="29" height="61" fill="url(#gm)"/>
  <rect x="368" y="368" width="29" height="61" fill="url(#gm)"/>
  <rect x="400" y="48" width="29" height="61" fill="#3b6b92"/>
  <rect x="432" y="48" width="29" height="61" fill="#61afef"/>
  <rect x="464" y="48" width="29" height="61" fill="#61afef"/>
  <rect x="496" y="48" width="29" height="61" fill="#61afef"/>
  <rect x="528" y="48" width="29" height="61" fill="#61afef"/>
  <rect x="560" y="48" width="29" height="61" fill="#61afef"/>
  <rect x="592" y="48" width="29" height="61" fill="#61afef"/>
  <rect x="624" y="48" width="29" height="61" fill="#61afef"/>
  <rect x="400" y="112" width="29" height="61" fill="#3b6b92"/>
  <rect x="432" y="112" width="29" height="61" fill="#61afef"/>
  <rect x="464" y="112" width="29" height="61" fill="#61afef"/>
  <rect x="400" y="176" width="29" height="61" fill="#3b6b92"/>
  <rect x="432" y="176" width="29" height="61" fill="#61afef"/>
  <rect x="464" y="176" width="29" height="61" fill="#61afef"/>
  <rect x="496" y="176" width="29" height="61" fill="#61afef"/>
  <rect x="528" y="176" width="29" height="61" fill="#61afef"/>
  <rect x="560" y="176" width="29" height="61" fill="#61afef"/>
  <rect x="592" y="176" width="29" height="61" fill="#61afef"/>
  <rect x="624" y="176" width="29" height="61" fill="#61afef"/>
  <rect x="400" y="240" width="29" height="61" fill="#3b6b92"/>
  <rect x="432" y="240" width="29" height="61" fill="#61afef"/>
  <rect x="464" y="240" width="29" height="61" fill="#61afef"/>
  <rect x="400" y="304" width="29" height="61" fill="#3b6b92"/>
  <rect x="432" y="304" width="29" height="61" fill="#61afef"/>
  <rect x="464" y="304" width="29" height="61" fill="#61afef"/>
  <rect x="400" y="368" width="29" height="61" fill="#3b6b92"/>
  <rect x="432" y="368" width="29" height="61" fill="#61afef"/>
  <rect x="464" y="368" width="29" height="61" fill="#61afef"/>
</svg>
